<svg width="13" height="14" viewBox="0 0 13 14" fill="none" xmlns="http://www.w3.org/2000/svg">
<path id="&#239;&#135;&#160;" d="M9.625 8.75C10.3542 8.75 10.974 9.00521 11.4844 9.51562C11.9948 10.026 12.25 10.6458 12.25 11.375C12.25 12.1042 11.9948 12.724 11.4844 13.2344C10.974 13.7448 10.3542 14 9.625 14C8.89583 14 8.27604 13.7448 7.76562 13.2344C7.25521 12.724 7 12.1042 7 11.375C7 11.1745 7.01823 10.9831 7.05469 10.8008L4.26562 9.05078C3.79167 9.43359 3.24479 9.625 2.625 9.625C1.89583 9.625 1.27604 9.36979 0.765625 8.85938C0.255208 8.34896 0 7.72917 0 7C0 6.27083 0.255208 5.65104 0.765625 5.14062C1.27604 4.63021 1.89583 4.375 2.625 4.375C3.24479 4.375 3.79167 4.56641 4.26562 4.94922L7.05469 3.19922C7.01823 3.01693 7 2.82552 7 2.625C7 1.89583 7.25521 1.27604 7.76562 0.765625C8.27604 0.255208 8.89583 0 9.625 0C10.3542 0 10.974 0.255208 11.4844 0.765625C11.9948 1.27604 12.25 1.89583 12.25 2.625C12.25 3.35417 11.9948 3.97396 11.4844 4.48438C10.974 4.99479 10.3542 5.25 9.625 5.25C9.00521 5.25 8.45833 5.05859 7.98438 4.67578L5.19531 6.42578C5.23177 6.60807 5.25 6.79948 5.25 7C5.25 7.20052 5.23177 7.39193 5.19531 7.57422L7.98438 9.32422C8.45833 8.94141 9.00521 8.75 9.625 8.75Z" fill="#2D2D2D"/>
</svg>
