<svg width="24" height="24" viewBox="0 0 24 24" fill="none" xmlns="http://www.w3.org/2000/svg">
<g id="Component 18">
<path id="&#239;&#141;&#138;" d="M17.6562 21.125H5.84375C5.60938 21.125 5.41016 21.043 5.24609 20.8789C5.08203 20.7148 5 20.5156 5 20.2812V19.4375C5 19.2031 5.08203 19.0039 5.24609 18.8398C5.41016 18.6758 5.60938 18.5938 5.84375 18.5938H17.6562C17.8906 18.5938 18.0898 18.6758 18.2539 18.8398C18.418 19.0039 18.5 19.2031 18.5 19.4375V20.2812C18.5 20.5156 18.418 20.7148 18.2539 20.8789C18.0898 21.043 17.8906 21.125 17.6562 21.125ZM9.5 6.21875C9.5 5.98438 9.58203 5.78516 9.74609 5.62109C9.91016 5.45703 10.1094 5.375 10.3438 5.375H13.1562C13.3906 5.375 13.5898 5.45703 13.7539 5.62109C13.918 5.78516 14 5.98438 14 6.21875V11H17.0938C17.3984 11 17.6094 11.1523 17.7266 11.457C17.8438 11.7383 17.7969 11.9844 17.5859 12.1953L12.2422 17.5391C12.1016 17.6797 11.9375 17.75 11.75 17.75C11.5625 17.75 11.3984 17.6797 11.2578 17.5391L5.91406 12.1953C5.70312 11.9844 5.65625 11.7383 5.77344 11.457C5.89062 11.1523 6.10156 11 6.40625 11H9.5V6.21875Z" fill="white"/>
</g>
</svg>
